<?xml version="1.0" encoding="utf-8"?>
<!-- Generator: Adobe Illustrator 23.0.1, SVG Export Plug-In . SVG Version: 6.00 Build 0)  -->
<svg version="1.1" id="Zwart" xmlns="http://www.w3.org/2000/svg" xmlns:xlink="http://www.w3.org/1999/xlink" x="0px" y="0px"
	 viewBox="0 0 944.5 310.4" style="enable-background:new 0 0 944.5 310.4;" xml:space="preserve">
<title>KB_Nationale-Bibliotheek_Logo_RGB</title>
<g>
	<g>
		<path d="M198.2,233c-0.3,0-0.6,0-1-0.1c-2.1-0.5-3.4-2.6-2.8-4.7l18.1-72.5l-18.1-72.5c-0.5-2.1,0.8-4.2,2.8-4.7
			c2.1-0.5,4.2,0.8,4.7,2.8l18.4,73.5c0.2,0.6,0.2,1.3,0,1.9L202,230C201.6,231.8,200,233,198.2,233z"/>
	</g>
	<g>
		<path d="M85.6,126.4c3.7,0,6-0.4,6.4-0.4c0.4,0,0.7,0,0.8,0.2c0.1,0.1,0.1,0.3-0.1,0.5c-0.2,0.2-1.5,1.2-2.4,3.2
			c-1.2,2.8-1.1,3.8-1.1,20.8c0,6.4,0,15.5,0,21.6c0,6.9,1.1,8.6,1.7,9.5c0.6,1,1.8,1.9,2.2,2.3c0.1,0.1,0.2,0.2,0.2,0.4
			c0,0.2-0.2,0.3-0.4,0.3c-0.2,0-5.6-0.5-7.4-0.5c-4,0-7.5,0.5-7.8,0.5c-0.2,0-0.4-0.1-0.4-0.3c0-0.1,0-0.3,0.2-0.5
			c0.7-0.5,1.7-1.3,2.4-2.4c0.7-1.1,1.5-2.5,1.5-9.4c0-9,0.1-20.9,0.1-21.6c0-0.8-0.1-11.3-0.1-16.8c0-4.8-2.2-6.4-3-7.2
			c-0.1-0.1-0.2-0.2-0.2-0.4c0-0.3,0.4-0.3,0.5-0.3C79.9,126.1,81.2,126.4,85.6,126.4"/>
		<path d="M92.7,150.9c-0.2-0.2-0.2-0.4-0.1-0.5c3-2.8,7.1-7.3,12.1-12.9c5.4-6,8.7-10.5,9.1-10.9c0.2-0.2,0.3-0.4,0.8-0.4
			c0.5,0,2.2,0,4.3-0.1c1.5-0.1,3.9-0.2,4.5-0.2c0.6,0,0.7,0.1,0.8,0.2c0.1,0.2-0.1,0.4-0.2,0.5c-0.3,0.3-9.4,7.6-10.9,9
			c-0.6,0.6-12,10.6-12.9,11.9c0,0.1,0,0.1,0,0.1c0,0,0,0.1,0.1,0.1c1,1.7,11.5,15.5,13.1,17.6c7.8,10.2,10,12.5,11.3,13.6
			c1.9,1.7,4,2.3,5.2,2.4c0.6,0.1,2.6,0.2,2.8-0.1c0.2-0.2,0.1-0.5,0.1-0.6c0-0.3,0-28.7,0-30.2c0-1.5-0.2-18.3-0.2-19.9
			c0-1.5-0.5-3-0.9-3.8c-0.1-0.1-0.2-0.4-0.1-0.6c0-0.2,0.3-0.3,0.6-0.3c1.1,0.1,3,0.1,4.8,0.1c1.7,0,3.2-0.1,3.9-0.1
			c1.3,0,9.2-0.2,11.4-0.2c1.6,0,8.7-0.1,11.9,3.2c3,3,4,5.8,4,10.1c0,3.7-1.8,6.6-3.6,8.3c-1.4,1.4-3.5,2.8-5.2,3.6
			c-1.3,0.6-2.2,0.8-2.2,1.1c0,0.2,0.5,0.2,1.4,0.4c2.3,0.4,7,1.2,10.6,5.2c1.4,1.6,3.7,4.5,3.6,11c-0.1,4.6-2.6,9.9-5.7,12.1
			c-3.6,2.6-7.2,3.9-13.5,4.2c-1.6,0.1-3.1,0.1-3.6,0c-0.2-0.1-0.5-0.2-0.5-1c0-0.9,0-1.4,0-2c0-0.3,0.2-0.6,0.8-0.6
			c0.4,0,6.4,0.5,10.7-3.8c0.8-0.8,3.7-3.9,3.7-9.8c0-2.1-0.7-5.8-3.6-8.7c-2.6-2.6-7.6-3.7-12.8-3.7c-0.4,0-0.6,0-0.7-0.2
			c-0.1-0.2-0.1-0.3-0.1-0.7c0-1.2,0-1.9,0-2.4c0-0.3,0-0.5,0.1-0.7c0.1-0.1,0.2-0.2,0.4-0.2c1.7-0.1,3.3-0.5,4.2-0.7
			c3.6-0.9,8.3-4.4,8.3-10.4c0-3.7-1.4-7.2-5.4-9.1c-2.6-1.2-5-1.4-9.1-1.4c-2.6,0-3.5,0-4.1,0c-0.1,0-0.7,0-0.9,0.2
			c-0.2,0.2-0.2,0.7-0.2,0.9c0,1.3-0.1,18.7-0.1,19.8c0,1.1,0.3,31.9,0.3,33.1c0,0.3,0,0.6-0.2,0.8c-0.2,0.2-0.5,0.2-0.7,0.2
			c-1.4,0-5.7-0.1-7.2,0c-1.5,0-9.4,0.2-10.9,0.2c-1.2,0-2-0.1-3.1-0.4c-1-0.3-1.9-0.9-2.9-2.1c-1-1.2-6.6-8.3-12.1-16.1
			C102.2,164.1,94.4,153.2,92.7,150.9"/>
	</g>
	<path d="M339,203.5c0,3.7,1.7,5.9,5.4,5.9c1.4,0,2.1,0.2,2.7,0.5c0.7,0.5,1.1,1.2,1.1,2.1c0,0.9-0.4,1.6-1.1,2.1
		c-0.5,0.3-1.3,0.5-2.7,0.5h-1.1c-6.9,0-10.3-4.9-10.3-10.9v-25h-2.8c-1.1,0-1.7-0.1-2.2-0.4c-0.7-0.4-1-1.1-1-1.9
		c0-0.8,0.3-1.5,1-1.9c0.5-0.3,1.1-0.4,2.2-0.4h2.8v-8.7c0-1.4,0.1-2,0.5-2.8c0.5-0.7,1.4-1.3,2.5-1.3c1.1,0,2,0.5,2.5,1.3
		c0.5,0.7,0.5,1.3,0.5,2.8v8.7h6c1.1,0,1.7,0.1,2.2,0.4c0.7,0.4,1,1.1,1,1.9c0,0.8-0.3,1.5-1,1.9c-0.5,0.3-1.1,0.4-2.2,0.4h-6V203.5
		z"/>
	<path d="M362.5,213.6c-0.5,0.7-1.4,1.3-2.5,1.3c-1.1,0-2-0.5-2.5-1.3c-0.5-0.7-0.5-1.3-0.5-2.8v-51.2c0-1.4,0.1-2,0.5-2.8
		c0.5-0.7,1.4-1.3,2.5-1.3c1.1,0,2,0.5,2.5,1.3c0.5,0.7,0.5,1.3,0.5,2.8v18.9c3-3.3,6.8-4.9,11.4-4.9c9.3,0,14.7,5.8,14.7,15v22.3
		c0,1.4-0.1,2-0.5,2.8c-0.5,0.7-1.4,1.3-2.5,1.3c-1.1,0-2-0.5-2.5-1.3c-0.5-0.7-0.5-1.3-0.5-2.8v-21.3c0-7.1-3.7-10.6-9.9-10.6
		c-6.2,0-10.1,3.5-10.1,10.6v21.3C363,212.3,363,212.9,362.5,213.6z"/>
	<path d="M403.9,195.8c0,8.9,4.2,14,12,14c3.1,0,6.3-0.9,8.7-2.9c1.3-1.1,1.9-1.4,2.8-1.4c1.3,0,2.6,1.2,2.6,2.6
		c0,1.8-2.6,3.6-4.2,4.6c-2.4,1.4-5.9,2.3-10.1,2.3c-10.7,0-17.7-6.4-17.7-20.7c0-13.4,6.5-20.7,16.7-20.7
		c10.3,0,16.5,7.5,16.6,18.8c0,0.8,0,1.9-0.8,2.7c-0.8,0.8-1.7,0.8-2.6,0.8H403.9z M425.4,191.3c-0.1-2.9-0.4-4.4-1.3-6.6
		c-1.5-3.7-5.1-6.1-9.5-6.1c-4.4,0-8,2.4-9.5,6.1c-0.9,2.2-1.2,3.7-1.3,6.6H425.4z"/>
	<path d="M490.3,210.8c0,1.5-0.1,2.1-0.5,2.8c-0.5,0.7-1.4,1.3-2.5,1.3c-1.1,0-2.1-0.5-2.5-1.3c-0.4-0.7-0.5-1.3-0.5-2.8v-21.2
		c0-7.2-3.7-10.8-9.9-10.8c-6.2,0-10.1,3.7-10.1,10.8v21.2c0,1.5-0.1,2.1-0.5,2.8c-0.5,0.7-1.4,1.3-2.5,1.3c-1.1,0-2-0.5-2.5-1.3
		c-0.4-0.7-0.5-1.3-0.5-2.8v-33.1c0-1.4,0.1-2,0.5-2.8c0.5-0.7,1.4-1.3,2.5-1.3c1.1,0,2,0.5,2.5,1.3c0.5,0.7,0.5,1.3,0.5,2.8v0.7
		c2.9-3.3,6.9-4.9,11.4-4.9c4.4,0,8,1.3,10.5,3.8c2.9,2.8,4.2,6.6,4.2,11.3V210.8z"/>
	<path d="M505.2,195.8c0,8.9,4.2,14,12,14c3.1,0,6.3-0.9,8.7-2.9c1.3-1.1,1.9-1.4,2.8-1.4c1.3,0,2.6,1.2,2.6,2.6
		c0,1.8-2.6,3.6-4.2,4.6c-2.4,1.4-5.9,2.3-10.1,2.3c-10.7,0-17.7-6.4-17.7-20.7c0-13.4,6.5-20.7,16.7-20.7
		c10.3,0,16.5,7.5,16.6,18.8c0,0.8,0,1.9-0.8,2.7c-0.8,0.8-1.7,0.8-2.6,0.8H505.2z M526.6,191.3c-0.1-2.9-0.4-4.4-1.3-6.6
		c-1.5-3.7-5.1-6.1-9.5-6.1c-4.4,0-8,2.4-9.5,6.1c-0.9,2.2-1.2,3.7-1.3,6.6H526.6z"/>
	<path d="M549.6,203.5c0,3.7,1.7,5.9,5.4,5.9c1.4,0,2.1,0.2,2.7,0.5c0.7,0.5,1.1,1.2,1.1,2.1c0,0.9-0.4,1.6-1.1,2.1
		c-0.5,0.3-1.3,0.5-2.7,0.5h-1.1c-6.9,0-10.3-4.9-10.3-10.9v-25h-2.8c-1.1,0-1.7-0.1-2.2-0.4c-0.7-0.4-1-1.1-1-1.9
		c0-0.8,0.3-1.5,1-1.9c0.5-0.3,1.1-0.4,2.2-0.4h2.8v-8.7c0-1.4,0.1-2,0.5-2.8c0.5-0.7,1.4-1.3,2.5-1.3c1.1,0,2,0.5,2.5,1.3
		c0.5,0.7,0.5,1.3,0.5,2.8v8.7h6c1.1,0,1.7,0.1,2.2,0.4c0.7,0.4,1,1.1,1,1.9c0,0.8-0.3,1.5-1,1.9c-0.5,0.3-1.1,0.4-2.2,0.4h-6V203.5
		z"/>
	<path d="M573.1,213.6c-0.5,0.7-1.4,1.3-2.5,1.3s-2-0.5-2.5-1.3c-0.5-0.7-0.5-1.3-0.5-2.8v-51.2c0-1.4,0.1-2,0.5-2.8
		c0.5-0.7,1.4-1.3,2.5-1.3s2,0.5,2.5,1.3c0.5,0.7,0.5,1.3,0.5,2.8v18.9c3-3.3,6.8-4.9,11.4-4.9c9.3,0,14.7,5.8,14.7,15v22.3
		c0,1.4-0.1,2-0.5,2.8c-0.5,0.7-1.4,1.3-2.5,1.3c-1.1,0-2-0.5-2.5-1.3c-0.5-0.7-0.5-1.3-0.5-2.8v-21.3c0-7.1-3.7-10.6-9.9-10.6
		s-10.1,3.5-10.1,10.6v21.3C573.6,212.3,573.6,212.9,573.1,213.6z"/>
	<path d="M615.5,195.8c0,8.9,4.2,14,12,14c3.1,0,6.3-0.9,8.7-2.9c1.3-1.1,1.9-1.4,2.8-1.4c1.3,0,2.6,1.2,2.6,2.6
		c0,1.8-2.6,3.6-4.2,4.6c-2.4,1.4-5.9,2.3-10.1,2.3c-10.7,0-17.7-6.4-17.7-20.7c0-13.4,6.5-20.7,16.7-20.7
		c10.3,0,16.5,7.5,16.6,18.8c0,0.8,0,1.9-0.8,2.7c-0.8,0.8-1.7,0.8-2.6,0.8H615.5z M637,191.3c-0.1-2.9-0.4-4.4-1.3-6.6
		c-1.5-3.7-5.1-6.1-9.5-6.1c-4.4,0-8,2.4-9.5,6.1c-0.9,2.2-1.2,3.7-1.3,6.6H637z"/>
	<path d="M658.9,178.9c2.3-3.3,6.6-5.4,11.1-5.4c2.9,0,5.1,0.6,7.3,1.9c1.2,0.8,2.3,1.7,2.3,3c0,0.8-0.4,1.6-0.9,2.1
		c-0.5,0.5-1.3,0.9-2.1,0.9c-0.7,0-1.4-0.3-2.8-1.2c-1.5-0.9-3.2-1.4-5.1-1.4c-6,0-9.8,4.6-9.8,10.9v21c0,1.4-0.1,2-0.5,2.8
		c-0.5,0.7-1.4,1.3-2.5,1.3c-1.1,0-2-0.5-2.5-1.3c-0.5-0.7-0.5-1.3-0.5-2.8v-33.1c0-1.4,0.1-2,0.5-2.8c0.5-0.7,1.4-1.3,2.5-1.3
		c1.1,0,2,0.5,2.5,1.3c0.5,0.7,0.5,1.3,0.5,2.8V178.9z"/>
	<path d="M691.9,203.5c0,3.7,1.7,5.9,5.4,5.9c1.4,0,2.1,0.2,2.7,0.5c0.7,0.5,1.1,1.2,1.1,2.1c0,0.9-0.4,1.6-1.1,2.1
		c-0.5,0.3-1.3,0.5-2.7,0.5h-1.1c-6.9,0-10.3-4.9-10.3-10.9v-44c0-1.4,0.1-2,0.5-2.8c0.5-0.7,1.4-1.3,2.5-1.3c1.1,0,2,0.5,2.5,1.3
		c0.5,0.7,0.5,1.3,0.5,2.8V203.5z"/>
	<path d="M720.6,191.3h12.3V188c0-6.2-2.9-9.3-10-9.3c-4.2,0-6.5,1.1-9.2,3.6c-0.9,0.8-1.9,1.1-2.5,1.1c-0.7,0-1.4-0.2-1.8-0.7
		c-0.5-0.5-0.7-1-0.7-1.9c0-1.5,1.5-3,3.9-4.5c2.9-1.9,6.1-2.6,10.4-2.6c10.5,0,15.9,4.7,15.9,13.5v23.8c0,1.4-0.1,2-0.5,2.8
		c-0.5,0.7-1.4,1.3-2.5,1.3s-2-0.5-2.5-1.3c-0.5-0.7-0.5-1.3-0.5-2.8v-0.1c-3.3,3.2-6.4,4.3-11.6,4.3c-5.6,0-9-1.1-11.5-3.7
		c-1.9-2-3.1-5-3.1-8.3C706.6,195.9,711.8,191.3,720.6,191.3z M721.8,210c3.4,0,6.4-0.3,8.9-2.8c1.4-1.4,2.1-3.6,2.1-7v-4.3h-11.6
		c-5.8,0-8.8,2.5-8.8,7.2C712.5,207.6,715.5,210,721.8,210z"/>
	<path d="M782.8,210.8c0,1.5-0.1,2.1-0.5,2.8c-0.5,0.7-1.4,1.3-2.5,1.3c-1.1,0-2.1-0.5-2.5-1.3c-0.4-0.7-0.5-1.3-0.5-2.8v-21.2
		c0-7.2-3.7-10.8-9.9-10.8s-10.1,3.7-10.1,10.8v21.2c0,1.5-0.1,2.1-0.5,2.8c-0.5,0.7-1.4,1.3-2.5,1.3s-2-0.5-2.5-1.3
		c-0.4-0.7-0.5-1.3-0.5-2.8v-33.1c0-1.4,0.1-2,0.5-2.8c0.5-0.7,1.4-1.3,2.5-1.3s2,0.5,2.5,1.3c0.5,0.7,0.5,1.3,0.5,2.8v0.7
		c2.9-3.3,6.9-4.9,11.4-4.9c4.4,0,8,1.3,10.5,3.8c2.9,2.8,4.2,6.6,4.2,11.3V210.8z"/>
	<path d="M798.1,177.1c2.1-2.1,5.7-3.5,9.9-3.5c4.4,0,8.1,1,11.4,5.2v-19.1c0-1.4,0.1-2,0.5-2.8c0.5-0.7,1.4-1.3,2.5-1.3
		s2,0.5,2.5,1.3c0.5,0.7,0.5,1.3,0.5,2.8v51.2c0,1.4-0.1,2-0.5,2.8c-0.5,0.7-1.4,1.3-2.5,1.3s-2-0.5-2.5-1.3
		c-0.5-0.7-0.5-1.3-0.5-2.8v-1.2c-3.4,4.3-6.9,5.4-11.4,5.4c-4.2,0-7.7-1.4-9.9-3.5c-4.1-4.1-5-10.7-5-17.2S793.9,181.2,798.1,177.1
		z M809.2,209.7c8.9,0,10.2-7.5,10.2-15.4c0-7.9-1.3-15.4-10.2-15.4s-10.2,7.5-10.2,15.4C799,202.2,800.4,209.7,809.2,209.7z"/>
	<path d="M834.5,208.4c0-0.7,0.3-1.5,0.9-2.1c0.5-0.4,1.1-0.6,1.7-0.6c0.7,0,1.6,0.4,2.7,1.2c2.9,2.1,6.2,3,10.7,3
		c6.9,0,10.8-2.3,10.8-7.1c0-3.6-2.1-5.5-6.8-5.9l-6.7-0.6c-7.9-0.7-12.1-4.2-12.1-10.9c0-7.4,6.2-11.9,14.9-11.9
		c4.5,0,8.2,0.9,11.3,2.6c1.1,0.5,1.6,1,2,1.5c0.4,0.5,0.5,0.9,0.5,1.5c0,0.5-0.3,1.2-0.7,1.6c-0.5,0.6-1.2,0.9-1.9,0.9
		c-0.7,0-1.3-0.2-2.3-0.8c-2.7-1.4-5.6-2.2-9.1-2.2c-5.8,0-9.1,2.4-9.1,6.7c0,3.7,2.3,5.4,7.1,5.8l6.5,0.6c7.1,0.7,11.9,3.3,11.9,11
		c0,7.8-6.7,12.3-16.5,12.3c-6.2,0-10.5-1.3-14.2-3.9C835.3,210.4,834.5,209.5,834.5,208.4z"/>
	<path d="M301.7,113.9H314v-3.3c0-6.2-2.9-9.3-10-9.3c-4.2,0-6.5,1.1-9.2,3.6c-0.9,0.8-1.9,1.1-2.5,1.1c-0.7,0-1.4-0.2-1.8-0.7
		c-0.5-0.5-0.7-1-0.7-1.9c0-1.5,1.5-3,3.9-4.5c2.9-1.9,6.1-2.6,10.4-2.6c10.5,0,15.9,4.7,15.9,13.5v23.8c0,1.4-0.1,2-0.5,2.8
		c-0.5,0.7-1.4,1.3-2.5,1.3c-1.1,0-2-0.5-2.5-1.3c-0.5-0.7-0.5-1.3-0.5-2.8v-0.1c-3.3,3.2-6.4,4.3-11.6,4.3c-5.6,0-9-1.1-11.5-3.7
		c-1.9-2-3.1-5-3.1-8.3C287.7,118.6,292.9,113.9,301.7,113.9z M302.9,132.6c3.4,0,6.4-0.3,8.9-2.8c1.4-1.4,2.1-3.6,2.1-7v-4.3h-11.6
		c-5.8,0-8.8,2.5-8.8,7.2C293.6,130.2,296.6,132.6,302.9,132.6z"/>
	<path d="M339,126.1c0,3.7,1.7,5.9,5.4,5.9c1.4,0,2.1,0.2,2.7,0.5c0.7,0.5,1.1,1.2,1.1,2.1c0,0.9-0.4,1.6-1.1,2.1
		c-0.5,0.3-1.3,0.5-2.7,0.5h-1.1c-6.9,0-10.3-4.9-10.3-10.9v-25h-2.8c-1.1,0-1.7-0.1-2.2-0.4c-0.7-0.4-1-1.1-1-1.9
		c0-0.8,0.3-1.5,1-1.9c0.5-0.3,1.1-0.4,2.2-0.4h2.8V88c0-1.4,0.1-2,0.5-2.8c0.5-0.7,1.4-1.3,2.5-1.3s2,0.5,2.5,1.3
		c0.5,0.7,0.5,1.3,0.5,2.8v8.7h6c1.1,0,1.7,0.1,2.2,0.4c0.7,0.4,1,1.1,1,1.9c0,0.8-0.3,1.5-1,1.9c-0.5,0.3-1.1,0.4-2.2,0.4h-6V126.1
		z"/>
	<path d="M360.2,77.4c2.3,0,4.1,1.8,4.1,4.1c0,2.3-1.8,4.1-4.1,4.1c-2.3,0-4.1-1.8-4.1-4.1C356.1,79.2,357.9,77.4,360.2,77.4z
		 M363.2,133.5c0,1.4-0.1,2-0.5,2.8c-0.5,0.7-1.4,1.3-2.5,1.3c-1.1,0-2-0.5-2.5-1.3c-0.5-0.7-0.5-1.3-0.5-2.8v-33.1
		c0-1.4,0.1-2,0.5-2.8s1.4-1.3,2.5-1.3c1.1,0,2,0.5,2.5,1.3c0.5,0.7,0.5,1.3,0.5,2.8V133.5z"/>
	<path d="M401.7,100.8c4.2,4.3,5,9.9,5,16.1c0,6.2-0.8,11.9-5,16.1c-2.8,2.8-6.7,4.6-11.6,4.6c-4.9,0-8.8-1.8-11.6-4.6
		c-4.2-4.3-5-9.9-5-16.1c0-6.3,0.8-11.9,5-16.1c2.8-2.8,6.7-4.6,11.6-4.6C395,96.2,398.9,98,401.7,100.8z M397.4,129.4
		c2.8-2.8,3.3-7.8,3.3-12.5c0-4.7-0.5-9.6-3.3-12.4c-2-2-4.3-3-7.3-3c-3,0-5.4,1-7.3,3c-2.8,2.8-3.3,7.7-3.3,12.4
		c0,4.7,0.5,9.6,3.3,12.5c2,2,4.3,2.9,7.3,2.9C393,132.3,395.4,131.4,397.4,129.4z"/>
	<path d="M449.1,133.5c0,1.5-0.1,2.1-0.5,2.8c-0.5,0.7-1.4,1.3-2.5,1.3c-1.1,0-2.1-0.5-2.5-1.3c-0.4-0.7-0.5-1.3-0.5-2.8v-21.2
		c0-7.2-3.7-10.8-9.9-10.8s-10.1,3.7-10.1,10.8v21.2c0,1.5-0.1,2.1-0.5,2.8c-0.5,0.7-1.4,1.3-2.5,1.3c-1.1,0-2-0.5-2.5-1.3
		c-0.4-0.7-0.5-1.3-0.5-2.8v-33.1c0-1.4,0.1-2,0.5-2.8c0.5-0.7,1.4-1.3,2.5-1.3s2,0.5,2.5,1.3c0.5,0.7,0.5,1.3,0.5,2.8v0.7
		c2.9-3.3,6.9-4.9,11.4-4.9c4.4,0,8,1.3,10.5,3.8c2.9,2.8,4.2,6.6,4.2,11.3V133.5z"/>
	<path d="M472.1,113.9h12.3v-3.3c0-6.2-2.9-9.3-10-9.3c-4.2,0-6.5,1.1-9.2,3.6c-0.9,0.8-1.9,1.1-2.5,1.1s-1.4-0.2-1.8-0.7
		c-0.5-0.5-0.7-1-0.7-1.9c0-1.5,1.5-3,3.9-4.5c2.9-1.9,6.1-2.6,10.4-2.6c10.5,0,15.9,4.7,15.9,13.5v23.8c0,1.4-0.1,2-0.5,2.8
		c-0.5,0.7-1.4,1.3-2.5,1.3c-1.1,0-2-0.5-2.5-1.3c-0.5-0.7-0.5-1.3-0.5-2.8v-0.1c-3.3,3.2-6.4,4.3-11.6,4.3c-5.6,0-9-1.1-11.5-3.7
		c-1.9-2-3.1-5-3.1-8.3C458.1,118.6,463.2,113.9,472.1,113.9z M473.3,132.6c3.4,0,6.4-0.3,8.9-2.8c1.4-1.4,2.1-3.6,2.1-7v-4.3h-11.6
		c-5.8,0-8.8,2.5-8.8,7.2C463.9,130.2,467,132.6,473.3,132.6z"/>
	<path d="M508.1,126.1c0,3.7,1.7,5.9,5.4,5.9c1.4,0,2.1,0.2,2.7,0.5c0.7,0.5,1.1,1.2,1.1,2.1c0,0.9-0.4,1.6-1.1,2.1
		c-0.5,0.3-1.3,0.5-2.7,0.5h-1.1c-6.9,0-10.3-4.9-10.3-10.9v-44c0-1.4,0.1-2,0.5-2.8c0.5-0.7,1.4-1.3,2.5-1.3c1.1,0,2,0.5,2.5,1.3
		c0.5,0.7,0.5,1.3,0.5,2.8V126.1z"/>
	<path d="M549.6,126.1c0,3.7,1.7,5.9,5.4,5.9c1.4,0,2.1,0.2,2.7,0.5c0.7,0.5,1.1,1.2,1.1,2.1c0,0.9-0.4,1.6-1.1,2.1
		c-0.5,0.3-1.3,0.5-2.7,0.5h-1.1c-6.9,0-10.3-4.9-10.3-10.9v-44c0-1.4,0.1-2,0.5-2.8c0.5-0.7,1.4-1.3,2.5-1.3c1.1,0,2,0.5,2.5,1.3
		c0.5,0.7,0.5,1.3,0.5,2.8V126.1z"/>
	<path d="M569.9,77.4c2.3,0,4.1,1.8,4.1,4.1c0,2.3-1.8,4.1-4.1,4.1c-2.3,0-4.1-1.8-4.1-4.1C565.8,79.2,567.6,77.4,569.9,77.4z
		 M572.9,133.5c0,1.4-0.1,2-0.5,2.8c-0.5,0.7-1.4,1.3-2.5,1.3s-2-0.5-2.5-1.3c-0.5-0.7-0.5-1.3-0.5-2.8v-33.1c0-1.4,0.1-2,0.5-2.8
		s1.4-1.3,2.5-1.3s2,0.5,2.5,1.3c0.5,0.7,0.5,1.3,0.5,2.8V133.5z"/>
	<path d="M612.5,134.1c-2.1,2.1-5.7,3.5-9.9,3.5c-4.5,0-8.1-1.1-11.4-5.4v1.2c0,1.4-0.1,2-0.5,2.8c-0.5,0.7-1.4,1.3-2.5,1.3
		c-1.1,0-2-0.5-2.5-1.3c-0.5-0.7-0.5-1.3-0.5-2.8V82.2c0-1.4,0.1-2,0.5-2.8c0.5-0.7,1.4-1.3,2.5-1.3c1.1,0,2,0.5,2.5,1.3
		c0.5,0.7,0.5,1.3,0.5,2.8v19.1c3.4-4.2,7-5.2,11.4-5.2c4.2,0,7.7,1.4,9.9,3.5c4.1,4.1,5,10.7,5,17.2S616.6,130,612.5,134.1z
		 M601.3,101.5c-8.8,0-10.2,7.5-10.2,15.4s1.3,15.4,10.2,15.4c8.9,0,10.2-7.5,10.2-15.4S610.2,101.5,601.3,101.5z"/>
	<path d="M634.1,101.5c2.3-3.3,6.6-5.4,11.1-5.4c2.9,0,5.1,0.6,7.3,1.9c1.2,0.8,2.3,1.7,2.3,3c0,0.8-0.4,1.6-0.9,2.1
		c-0.5,0.5-1.3,0.9-2.1,0.9c-0.7,0-1.4-0.3-2.8-1.2c-1.5-0.9-3.2-1.4-5.1-1.4c-6,0-9.8,4.6-9.8,10.9v21c0,1.4-0.1,2-0.5,2.8
		c-0.5,0.7-1.4,1.3-2.5,1.3c-1.1,0-2-0.5-2.5-1.3c-0.5-0.7-0.5-1.3-0.5-2.8v-33.1c0-1.4,0.1-2,0.5-2.8c0.5-0.7,1.4-1.3,2.5-1.3
		c1.1,0,2,0.5,2.5,1.3c0.5,0.7,0.5,1.3,0.5,2.8V101.5z"/>
	<path d="M673.6,113.9h12.3v-3.3c0-6.2-2.9-9.3-10-9.3c-4.2,0-6.5,1.1-9.2,3.6c-0.9,0.8-1.9,1.1-2.5,1.1c-0.7,0-1.4-0.2-1.8-0.7
		c-0.5-0.5-0.7-1-0.7-1.9c0-1.5,1.5-3,3.9-4.5c2.9-1.9,6.1-2.6,10.4-2.6c10.5,0,15.9,4.7,15.9,13.5v23.8c0,1.4-0.1,2-0.5,2.8
		c-0.5,0.7-1.4,1.3-2.5,1.3c-1.1,0-2-0.5-2.5-1.3c-0.5-0.7-0.5-1.3-0.5-2.8v-0.1c-3.3,3.2-6.4,4.3-11.6,4.3c-5.6,0-9-1.1-11.5-3.7
		c-1.9-2-3.1-5-3.1-8.3C659.6,118.6,664.8,113.9,673.6,113.9z M674.8,132.6c3.4,0,6.4-0.3,8.9-2.8c1.4-1.4,2.1-3.6,2.1-7v-4.3h-11.6
		c-5.8,0-8.8,2.5-8.8,7.2C665.5,130.2,668.5,132.6,674.8,132.6z"/>
	<path d="M709.8,101.5c2.3-3.3,6.6-5.4,11.1-5.4c2.9,0,5.1,0.6,7.3,1.9c1.2,0.8,2.3,1.7,2.3,3c0,0.8-0.4,1.6-0.9,2.1
		c-0.5,0.5-1.3,0.9-2.1,0.9c-0.7,0-1.4-0.3-2.8-1.2c-1.5-0.9-3.2-1.4-5.1-1.4c-6,0-9.8,4.6-9.8,10.9v21c0,1.4-0.1,2-0.5,2.8
		c-0.5,0.7-1.4,1.3-2.5,1.3s-2-0.5-2.5-1.3c-0.5-0.7-0.5-1.3-0.5-2.8v-33.1c0-1.4,0.1-2,0.5-2.8s1.4-1.3,2.5-1.3s2,0.5,2.5,1.3
		s0.5,1.3,0.5,2.8V101.5z"/>
	<path d="M761.1,99.2c0.5-1.6,1.2-2.9,3-2.9c1.2,0,2.3,0.7,2.7,1.8c0.3,0.8,0.2,1.7-0.2,2.9l-15.9,45.9c-0.7,1.9-1.6,3.7-2.9,4.9
		c-2.1,2-4.7,2.8-7.5,2.8c-1.3,0-2.2-0.2-2.8-0.6c-0.6-0.5-0.9-1.1-0.9-2.1c0-0.9,0.3-1.6,0.9-2.1c0.5-0.4,1.1-0.6,2.2-0.6
		c3,0,4.9-1.2,6.1-5l2.6-7.7L736.1,101c-0.4-1.2-0.5-2.1-0.2-2.9c0.4-1,1.6-1.8,2.7-1.8c1.7,0,2.4,1.3,3,2.9l9.8,29.9L761.1,99.2z"
		/>
	<g>
		<path d="M272.8,178.2c4.2,4.3,5,9.9,5,16.1c0,6.2-0.8,11.9-5,16.1c-2.8,2.8-6.7,4.6-11.6,4.6c-4.9,0-8.9-1.8-11.6-4.6
			c-4.2-4.3-5-9.9-5-16.1c0-6.3,0.8-11.9,5-16.1c2.8-2.8,6.7-4.6,11.6-4.6C266.1,173.6,270,175.4,272.8,178.2z M268.5,206.8
			c2.8-2.8,3.3-7.8,3.3-12.5c0-4.7-0.5-9.6-3.3-12.4c-2-2-4.3-3-7.3-3c-3,0-5.4,1-7.3,3c-2.8,2.8-3.3,7.7-3.3,12.4
			c0,4.7,0.5,9.6,3.3,12.5c2,2,4.3,2.9,7.3,2.9C264.2,209.7,266.5,208.7,268.5,206.8z"/>
		<path d="M301,174c1.1,0,1.7,0.1,2.2,0.4c0.7,0.4,1,1.1,1,1.9c0,0.8-0.3,1.5-1,1.9c-0.5,0.3-1.1,0.4-2.2,0.4h-6v32.2
			c0,1.4-0.1,2-0.5,2.8c-0.5,0.7-1.4,1.3-2.5,1.3c-1.1,0-2-0.5-2.5-1.3c-0.5-0.7-0.5-1.3-0.5-2.8v-32.2h-2.8c-1.1,0-1.7-0.1-2.2-0.4
			c-0.7-0.4-1-1.1-1-1.9c0-0.8,0.3-1.5,1-1.9c0.5-0.3,1.1-0.4,2.2-0.4h2.8v-7.4c0-6,3.4-10.9,10.3-10.9h1.1c1.4,0,2.1,0.2,2.7,0.5
			c0.7,0.5,1.1,1.2,1.1,2.1c0,0.9-0.4,1.6-1.1,2.1c-0.5,0.3-1.3,0.5-2.7,0.5c-3.7,0-5.4,2.2-5.4,5.9v7.2H301z"/>
	</g>
	<path d="M278.8,133.5c0,1.5-0.1,2.1-0.5,2.8c-0.5,0.7-1.4,1.3-2.5,1.3c-1.1,0-2.1-0.5-2.5-1.3c-0.4-0.7-0.5-1.3-0.5-2.8v-21.2
		c0-7.2-3.7-10.8-9.9-10.8c-6.2,0-10.1,3.7-10.1,10.8v21.2c0,1.5-0.1,2.1-0.5,2.8c-0.5,0.7-1.4,1.3-2.5,1.3c-1.1,0-2-0.5-2.5-1.3
		c-0.4-0.7-0.5-1.3-0.5-2.8v-33.1c0-1.4,0.1-2,0.5-2.8c0.5-0.7,1.4-1.3,2.5-1.3c1.1,0,2,0.5,2.5,1.3s0.5,1.3,0.5,2.8v0.7
		c2.9-3.3,6.9-4.9,11.4-4.9c4.4,0,8,1.3,10.5,3.8c2.9,2.8,4.2,6.6,4.2,11.3V133.5z"/>
</g>
</svg>
